<?xml version="1.0" standalone="no"?>
<!DOCTYPE svg PUBLIC "-//W3C//DTD SVG 20010904//EN"
 "http://www.w3.org/TR/2001/REC-SVG-20010904/DTD/svg10.dtd">
<svg version="1.0" xmlns="http://www.w3.org/2000/svg"
 width="616.000000pt" height="192.000000pt" viewBox="0 0 616.000000 192.000000"
 preserveAspectRatio="xMidYMid meet">
<metadata>
Created by potrace 1.14, written by Peter Selinger 2001-2017
</metadata>
<g transform="translate(0.000000,192.000000) scale(0.100000,-0.100000)" fill="#fff" stroke="none">
<path d="M292 1657 l-242 -242 0 -450 0 -450 244 -248 244 -247 2546 0 2546 0
240 242 240 243 0 455 0 455 -243 243 -242 242 -2545 0 -2545 0 -243 -243z
m5510 -64 l218 -218 0 -412 0 -413 -213 -215 -213 -215 -2515 0 -2515 0 -212
213 -212 213 0 414 0 415 217 217 218 218 2505 0 2505 0 217 -217z"/>
<path d="M885 1573 c-40 -6 -109 -29 -148 -50 -198 -102 -319 -335 -304 -582
16 -253 161 -465 382 -558 120 -50 161 -57 350 -57 99 -1 201 3 228 7 45 8 47
10 47 41 0 25 -6 35 -25 44 -13 6 -27 22 -31 36 -3 13 -4 122 -2 241 l3 217
28 23 c16 15 27 34 27 50 l0 25 -165 0 -165 0 0 -27 c0 -20 8 -33 29 -44 18
-11 30 -28 34 -49 11 -51 8 -418 -2 -425 -5 -3 -49 -1 -98 5 -191 21 -328 137
-400 337 -13 36 -18 81 -18 178 0 119 2 136 28 203 35 88 105 169 179 206 41
21 67 26 123 26 118 0 190 -33 221 -103 18 -39 18 -41 -11 -109 -4 -12 1 -22
20 -34 31 -20 27 -23 132 109 l63 79 -26 34 c-47 61 -156 130 -253 160 -49 15
-196 26 -246 17z"/>
<path d="M5115 1574 c-128 -20 -249 -96 -295 -185 -43 -82 -43 -225 0 -309 40
-78 132 -129 315 -175 61 -15 124 -33 140 -40 17 -7 41 -16 55 -20 42 -13 94
-53 115 -87 24 -40 25 -120 2 -164 -30 -57 -111 -104 -203 -117 -95 -14 -227
40 -261 106 -20 39 -20 110 0 140 15 23 15 26 -7 46 -25 24 -32 25 -49 11 -7
-6 -54 -42 -105 -81 -104 -80 -102 -69 -30 -166 111 -151 232 -213 418 -213
201 0 368 87 437 229 26 51 28 66 27 166 0 90 -4 118 -21 155 -50 109 -135
166 -318 216 -217 58 -262 75 -302 108 -36 32 -38 37 -38 91 0 51 3 59 32 85
41 37 89 50 183 50 98 0 139 -12 190 -58 40 -35 42 -40 42 -92 0 -44 4 -58 20
-71 20 -16 24 -13 104 64 46 44 84 86 84 92 0 23 -81 104 -140 140 -89 54
-161 75 -270 80 -52 2 -108 1 -125 -1z"/>
<path d="M1720 1525 c0 -17 9 -29 30 -40 17 -9 30 -21 30 -29 0 -7 -25 -63
-55 -124 -117 -239 -139 -312 -139 -467 0 -135 12 -185 73 -291 76 -134 179
-205 326 -224 44 -6 184 -10 310 -8 l230 3 3 24 c3 16 -7 33 -32 56 l-36 33 0
489 0 490 25 27 c13 14 29 26 35 26 5 0 10 14 10 30 l0 30 -170 0 -170 0 0
-29 c0 -21 6 -32 20 -36 11 -3 25 -15 30 -25 7 -12 10 -189 10 -487 l1 -468
-82 -3 c-138 -5 -237 38 -304 132 -49 70 -67 141 -67 266 1 206 80 427 195
543 38 39 57 67 57 83 l0 24 -165 0 -165 0 0 -25z"/>
<path d="M2700 1523 c0 -20 8 -33 29 -44 18 -11 30 -28 34 -49 9 -42 9 -918 0
-960 -4 -22 -16 -38 -35 -49 -23 -13 -28 -22 -26 -46 l3 -30 168 -3 167 -2 0
34 c0 26 -5 36 -21 41 -40 13 -49 61 -49 260 l0 185 83 0 c95 0 76 17 167
-155 93 -176 182 -340 192 -352 8 -9 48 -13 139 -13 l129 0 0 33 c0 26 -6 35
-32 47 -20 10 -45 38 -70 79 -21 34 -38 64 -38 66 0 2 -40 74 -90 161 -49 88
-90 164 -90 170 0 6 19 16 42 23 64 20 149 110 173 186 22 68 25 169 7 232
-16 53 -66 119 -117 154 -81 55 -109 59 -451 59 l-314 0 0 -27z m583 -142 c63
-30 96 -76 104 -139 8 -70 -3 -117 -38 -157 -47 -53 -102 -69 -248 -69 l-126
-1 -3 198 -2 199 132 -4 c115 -3 139 -6 181 -27z"/>
<path d="M3800 1521 c0 -20 5 -31 14 -31 8 0 24 -12 35 -26 21 -26 21 -36 21
-517 l0 -490 -36 -33 c-24 -23 -34 -41 -32 -56 3 -23 5 -23 171 -26 l167 -2 0
35 c0 19 -4 35 -10 35 -5 0 -18 10 -30 22 -18 19 -20 35 -20 137 l1 116 119
39 c331 106 480 256 480 481 0 143 -57 244 -172 306 l-63 34 -322 3 -323 3 0
-30z m511 -122 c94 -29 149 -109 149 -216 0 -115 -58 -189 -225 -285 -57 -32
-137 -68 -153 -68 -4 0 -6 130 -4 290 l3 290 96 0 c52 0 113 -5 134 -11z"/>
</g>
</svg>
