<?xml version="1.0" encoding="iso-8859-1"?>
<!-- Generator: Adobe Illustrator 18.1.1, SVG Export Plug-In . SVG Version: 6.00 Build 0)  -->
<svg version="1.1" id="Capa_1" xmlns="http://www.w3.org/2000/svg" xmlns:xlink="http://www.w3.org/1999/xlink" x="0px" y="0px"
	 viewBox="0 0 41.857 41.857" style="enable-background:new 0 0 41.857 41.857;" xml:space="preserve">
<g>
	<g>
		<path style="fill:#030104;" d="M41.514,9.344c-0.639-2.572-2.279-4.899-4.324-6.555c-1.688-1.369-3.74-2.137-5.914-2.19
			c-1.938-0.047-3.839,0.499-5.604,1.251c-1.669,0.71-3.195,1.675-4.728,2.633c-1.055-0.704-2.035-1.508-3.119-2.174
			c-1.644-1.01-3.461-1.784-5.382-2.042c-2.328-0.313-4.615,0.232-6.64,1.397c-1.699,0.977-3.199,2.303-4.19,4.001
			c-2.776,4.754-1.637,10.613,0.906,15.19c0.116,0.209,0.465,0.281,0.628,0.082c2.301-2.826,4.603-5.655,6.906-8.483
			c0.31-0.328,0.847-0.236,1.081,0.139c0.374,0.602,0.674,1.266,1.007,1.892c0.671,1.261,1.341,2.522,2.012,3.784
			c0.152,0.286,0.678,0.252,0.731-0.096c0.368-2.418,0.737-4.835,1.105-7.253c0.173-1.138,0.294-2.299,0.527-3.426
			c0.115-0.555,1.032-0.482,1.264-0.077c0.087,0.151,0.075,0.401,0.099,0.567c0.047,0.33,0.095,0.66,0.142,0.989
			c0.085,0.594,0.17,1.187,0.255,1.781c0.18,1.253,0.36,2.507,0.54,3.76c0.35,2.441,0.701,4.881,1.051,7.322
			c0.056,0.389,0.706,0.379,0.771,0c0.155-0.891,0.31-1.782,0.465-2.673c0.07-0.403,0.077-0.917,0.244-1.292
			c0.203-0.452,0.83-0.36,1.218-0.36c1.993,0,3.987,0,5.981,0c3.987,0,7.976,0,11.965,0c0.19,0,0.321-0.125,0.386-0.294
			C41.843,14.694,42.169,11.98,41.514,9.344z M40.225,16.711c-4.158,0-8.318,0-12.479,0c-1.062,0-2.127,0-3.189,0
			c-0.951,0-2.01-0.13-2.947,0.046c-0.833,0.157-1.055,0.904-1.179,1.62c-0.047,0.272-0.095,0.544-0.142,0.816
			c-0.281-1.96-0.562-3.921-0.844-5.881c-0.199-1.385-0.398-2.77-0.596-4.156c-0.127-0.882-0.024-2.123-0.882-2.654
			c-0.537-0.332-1.368-0.26-1.836,0.162c-0.276,0.25-0.382,0.546-0.436,0.907c-0.109,0.719-0.219,1.437-0.328,2.156
			c-0.36,2.363-0.72,4.727-1.08,7.09c-0.668-1.256-1.336-2.513-2.004-3.769c-0.308-0.578-0.547-1.255-1.216-1.493
			c-0.502-0.179-1.037-0.108-1.442,0.225c-0.032,0.014-0.062,0.043-0.092,0.071c-0.014,0.014-0.032,0.021-0.045,0.035
			c-0.002,0.002-0.002,0.005-0.005,0.008c-2.184,2.681-4.366,5.361-6.549,8.042c-2.108-4.045-3.038-8.917-0.998-13.178
			c1.826-3.812,6.347-6.3,10.538-5.684c1.841,0.27,3.554,1.062,5.122,2.036c1.086,0.675,2.063,1.501,3.132,2.196
			c0.116,0.075,0.288,0.072,0.404,0c2.871-1.791,5.841-3.646,9.31-3.887c5.055-0.352,9.367,3.839,10.404,8.593
			C41.335,12.251,40.983,14.573,40.225,16.711z"/>
		<path style="fill:#030104;" d="M39.517,18.889c-5.547,0-11.094,0-16.642,0c-0.018,0-0.028,0.007-0.045,0.009
			c-0.157-0.003-0.307,0.079-0.342,0.285c-0.398,2.293-0.797,4.584-1.197,6.877c-0.091,0.523-0.183,1.049-0.273,1.572
			c-0.046,0.262-0.091,0.523-0.137,0.785c-0.034,0.197-0.033,0.471-0.162,0.637c-0.336,0.433-1.126,0.295-1.232-0.242
			c-0.217-1.101-0.321-2.234-0.48-3.342c-0.169-1.182-0.339-2.359-0.508-3.539c-0.329-2.294-0.658-4.588-0.987-6.882
			c-0.055-0.385-0.713-0.382-0.771,0c-0.226,1.488-0.453,2.977-0.68,4.465c-0.108,0.712-0.217,1.423-0.325,2.135
			c-0.067,0.44-0.514,0.549-0.893,0.452c-0.486-0.123-0.711-0.94-0.919-1.33c-0.37-0.695-0.739-1.39-1.109-2.084
			c-0.708-1.332-1.416-2.663-2.124-3.995c-0.113-0.212-0.467-0.279-0.628-0.081c-2.091,2.568-4.183,5.137-6.274,7.705
			C3.68,22.449,3.618,22.642,3.726,22.8c2.151,3.139,4.909,5.887,7.479,8.683c3.045,3.312,6.066,6.645,8.977,10.077
			c0.132,0.156,0.434,0.158,0.566,0c3.197-3.853,6.611-7.512,10.041-11.153c1.621-1.722,3.246-3.44,4.848-5.181
			c1.616-1.758,3.086-3.631,4.227-5.735C40.005,19.227,39.826,18.889,39.517,18.889z M34.955,24.786
			c-1.604,1.743-3.232,3.463-4.856,5.187c-3.289,3.494-6.558,7.011-9.635,10.692c-2.759-3.239-5.609-6.397-8.489-9.528
			c-1.265-1.377-2.532-2.754-3.78-4.146c-1.267-1.413-2.528-2.826-3.619-4.381c1.9-2.334,3.8-4.667,5.7-7
			c0.74,1.391,1.479,2.783,2.22,4.174c0.431,0.812,0.863,1.621,1.294,2.433c0.222,0.416,0.682,0.668,1.142,0.709
			c0.45,0.041,0.848-0.09,1.197-0.371c0.507-0.408,0.47-1.285,0.557-1.858c0.144-0.943,0.287-1.886,0.431-2.829
			c0.251,1.753,0.502,3.505,0.754,5.258c0.188,1.311,0.376,2.622,0.564,3.932c0.094,0.655,0.188,1.312,0.282,1.968
			c0.045,0.315,0.241,0.604,0.497,0.788c0.523,0.377,1.242,0.365,1.788,0.046c0.281-0.164,0.458-0.438,0.563-0.738
			c0.197-0.571,0.225-1.269,0.328-1.864c0.438-2.521,0.878-5.045,1.314-7.566c5.201,0,10.402,0,15.604,0
			C37.731,21.538,36.408,23.207,34.955,24.786z"/>
	</g>
</g>
<g>
</g>
<g>
</g>
<g>
</g>
<g>
</g>
<g>
</g>
<g>
</g>
<g>
</g>
<g>
</g>
<g>
</g>
<g>
</g>
<g>
</g>
<g>
</g>
<g>
</g>
<g>
</g>
<g>
</g>
</svg>
